<svg aria-hidden="true" style="position: absolute; width: 0; height: 0; overflow: hidden;" version="1.1" xmlns="http://www.w3.org/2000/svg" xmlns:xlink="http://www.w3.org/1999/xlink">
<defs>
<symbol id="icon-ph_instagram-logo-light" viewBox="0 0 32 32">
<path fill="#fff" style="fill: var(--color1, #fff)" d="M16 10.25c-0.020-0-0.043-0-0.066-0-3.176 0-5.75 2.574-5.75 5.75s2.574 5.75 5.75 5.75c0.023 0 0.047-0 0.070-0l-0.004 0c3.147-0.037 5.684-2.597 5.684-5.75s-2.537-5.712-5.68-5.75l-0.004-0zM16 20.25c-2.347 0-4.25-1.903-4.25-4.25s1.903-4.25 4.25-4.25c2.347 0 4.25 1.903 4.25 4.25v0c-0.007 2.344-1.906 4.243-4.249 4.25h-0.001zM21.5 3.75h-11.001c-3.728 0-6.75 3.022-6.75 6.75v0 11c0 3.728 3.022 6.75 6.75 6.75h11.002c3.728 0 6.75-3.022 6.75-6.75v0-11.001c0-3.728-3.022-6.75-6.75-6.75v0zM26.75 21.5c0 2.899-2.35 5.25-5.25 5.25v0h-11.001c-2.899 0-5.25-2.35-5.25-5.25v0-11.001c0-2.899 2.35-5.25 5.25-5.25v0h11.002c2.899 0 5.25 2.35 5.25 5.25v11.002zM23.75 9.5c0 0.69-0.559 1.25-1.25 1.25s-1.25-0.559-1.25-1.25v0c0-0.69 0.559-1.25 1.25-1.25s1.25 0.559 1.25 1.25v0z"></path>
</symbol>
<symbol id="icon-telephone-receiver_icon-icons" viewBox="0 0 32 32">
<path fill="#fff" style="fill: var(--color1, #fff)" d="M27.655 22.957l-0.174-0.216c-1.371-1.735-2.519-2.637-3.502-2.756-0.851-0.117-1.674 0.472-2.549 1.077l-0.934 0.584c-0.092 0.048-0.2 0.093-0.313 0.128l-0.014 0.004c-0.547 0.155-1.927 0.246-2.708-0.469-0.91-0.831-2.32-2.354-3.417-3.685-1.048-1.377-2.2-3.094-2.802-4.175-0.508-0.917-0.083-2.197 0.201-2.673 0.065-0.104 0.135-0.194 0.212-0.277l-0.001 0.001 0.824-0.761c0.012-0.012 0.018-0.027 0.028-0.037 0.008-0.008 0.021-0.005 0.030-0.012 0.744-0.628 1.513-1.275 1.619-2.105 0.123-0.976-0.483-2.296-1.858-4.029l-0.168-0.216c-0.851-1.090-2.138-2.74-3.986-2.469-0.726 0.109-1.375 0.357-2.045 0.777-0.007 0.004-0.011 0.011-0.016 0.015s-0.012 0.005-0.018 0.008l-0.931 0.692c-0.009 0.005-0.015 0.018-0.024 0.026-0.008 0.006-0.018 0.008-0.026 0.014-0.125 0.105-0.23 0.196-0.333 0.289l0.011-0.010c-0.946 0.842-2.993 3.289-1.597 7.814 0.901 2.923 2.76 6.334 5.388 9.883l-0.026 0.021 1.45 1.806 0.012-0.010c2.85 3.371 5.749 5.976 8.406 7.554 1.774 1.054 3.323 1.402 4.597 1.402 1.678 0 2.879-0.603 3.482-0.995l0.378-0.254c0.043-0.029 0.074-0.071 0.104-0.108l0.825-0.621c0.009-0.008 0.015-0.018 0.024-0.027 0.004-0.004 0.011-0.003 0.015-0.007 0.587-0.536 0.994-1.097 1.276-1.762 0.732-1.706-0.578-3.339-1.445-4.421zM28.12 26.958c-0.219 0.518-0.541 0.958-1.006 1.384l-1.227 0.923c-1.112 0.723-3.49 1.616-6.942-0.434-2.658-1.577-5.583-4.244-8.462-7.712l-0.779-0.984c-2.71-3.595-4.617-7.038-5.517-9.955-1.17-3.794 0.304-5.829 1.291-6.706 0.1-0.091 0.2-0.175 0.299-0.259l0.004-0.004 0.894-0.663c0.544-0.344 1.048-0.536 1.628-0.624 1.239-0.187 2.247 1.12 2.987 2.069l0.173 0.22c1.537 1.938 1.684 2.859 1.637 3.234-0.053 0.418-0.688 0.952-1.248 1.423l-0.079 0.066-0.006 0.009c-0.004 0.003-0.008 0.004-0.012 0.007l-0.852 0.788c-0.005 0.005-0.008 0.012-0.014 0.019s-0.015 0.009-0.021 0.015c-0.121 0.133-0.233 0.28-0.33 0.437l-0.007 0.013c-0.478 0.802-0.93 2.458-0.217 3.739 0.622 1.12 1.808 2.89 2.898 4.319 1.138 1.381 2.59 2.949 3.532 3.81 0.705 0.644 1.686 0.859 2.536 0.859 0.008 0 0.018 0 0.028 0 0.413 0 0.813-0.056 1.192-0.16l-0.032 0.007c0.166-0.047 0.338-0.117 0.516-0.203 0.011-0.005 0.015-0.015 0.027-0.021 0.005-0.002 0.013-0.002 0.018-0.005l0.99-0.619c0.032-0.021 0.053-0.050 0.080-0.076l0.011 0.014c0.61-0.423 1.304-0.919 1.739-0.846 0.385 0.046 1.259 0.417 2.798 2.36l0.178 0.222c0.749 0.935 1.775 2.215 1.297 3.333z"></path>
</symbol>
<symbol id="icon-uit_facebook-f" viewBox="0 0 42 32">
<path fill="#fff" style="fill: var(--color1, #fff)" d="M31.329 2.779c-1.757-0.186-3.522-0.277-5.289-0.272-5.857 0-9.496 3.73-9.496 9.735v4.077h-4.919c-0 0-0 0-0 0-0.481 0-0.871 0.39-0.871 0.871v6.705c0 0.481 0.39 0.871 0.871 0.871h4.92v13.445c0 0.481 0.39 0.871 0.871 0.871 0 0 0 0 0 0h6.928c0.481 0 0.871-0.39 0.871-0.87v-13.445h4.904c0 0 0.001 0 0.001 0 0.441 0 0.805-0.328 0.863-0.753l0-0.004 0.865-6.705c0.005-0.034 0.007-0.073 0.007-0.113 0-0.481-0.39-0.871-0.871-0.871-0 0-0 0-0.001 0h-5.77v-3.412c0-1.689 0.34-2.395 2.452-2.395h3.551c0.481-0 0.87-0.39 0.871-0.87v-5.999c0-0 0-0 0-0.001 0-0.441-0.328-0.805-0.753-0.863l-0.004-0.001zM30.345 8.77l-2.682 0.002c-3.756 0-4.192 2.361-4.192 4.136v4.284c0 0.48 0.389 0.87 0.869 0.871h5.653l-0.643 4.963h-5.009c-0.481 0-0.871 0.39-0.871 0.871v0 13.441h-5.186v-13.441c0-0.481-0.39-0.871-0.871-0.871v0h-4.918v-4.963h4.918c0.481 0 0.871-0.39 0.871-0.87v-4.95c0-5.005 2.9-7.993 7.755-7.993 1.757 0 3.344 0.096 4.305 0.18v4.342z"></path>
</symbol>
</defs>
</svg>
