<svg xmlns="http://www.w3.org/2000/svg" width="128" height="98" fill="none" viewBox="0 0 128 98">
  <path fill="#fff" d="M95.946 8.512c-5.38-.57-10.787-.848-16.197-.832-17.936 0-29.083 11.424-29.083 29.813V49.98H35.6a2.666 2.666 0 0 0-2.667 2.666V73.18a2.667 2.667 0 0 0 2.667 2.666h15.066v41.174a2.666 2.666 0 0 0 2.667 2.666H74.55a2.667 2.667 0 0 0 2.667-2.666V75.845h15.018a2.666 2.666 0 0 0 2.646-2.32l2.65-20.533a2.666 2.666 0 0 0-2.645-3.013h-17.67V39.53c0-5.174 1.04-7.334 7.51-7.334H95.6a2.667 2.667 0 0 0 2.666-2.666V11.157a2.666 2.666 0 0 0-2.32-2.645Zm-3.013 18.347-8.213.005c-11.504 0-12.838 7.232-12.838 12.667v13.12a2.667 2.667 0 0 0 2.662 2.666h17.312l-1.968 15.2H74.549a2.667 2.667 0 0 0-2.667 2.667v41.163H56V73.184a2.667 2.667 0 0 0-2.667-2.667H38.272v-15.2h15.061A2.667 2.667 0 0 0 56 52.651V37.493c0-15.328 8.88-24.48 23.75-24.48 5.38 0 10.24.294 13.183.55v13.296Z"/>
</svg>
